<svg xmlns="http://www.w3.org/2000/svg" xmlns:xlink="http://www.w3.org/1999/xlink" preserveAspectRatio="xMidYMid" width="19" height="22" viewBox="0 0 19 22">
  <defs>
    <style>
      .cls-1 {
        fill: #5b6779;
        fill-rule: evenodd;
      }
    </style>
  </defs>
  <path d="M19.008,7.275 L19.006,9.936 L19.008,12.965 C19.008,14.986 19.010,17.009 19.006,19.030 C19.002,20.915 17.854,21.996 15.855,21.996 C13.740,21.999 11.624,21.999 9.504,21.999 C7.387,21.999 5.272,21.999 3.155,21.996 C1.153,21.996 0.004,20.915 0.004,19.030 C0.001,15.998 0.001,12.965 0.001,9.936 C0.001,6.920 0.001,6.008 0.004,2.992 C0.004,1.362 0.851,0.638 1.561,0.319 C2.028,0.108 2.573,0.000 3.181,0.000 C7.398,-0.003 11.614,-0.003 15.827,0.000 C16.435,0.000 16.982,0.107 17.454,0.319 C18.164,0.643 19.006,1.368 19.006,2.993 C19.010,4.910 19.008,5.977 19.008,7.275 ZM17.784,2.993 C17.784,2.157 17.503,1.622 16.924,1.358 C16.622,1.222 16.252,1.152 15.827,1.152 C13.719,1.151 11.613,1.150 9.505,1.150 C7.398,1.150 5.289,1.151 3.181,1.152 C2.752,1.152 2.395,1.220 2.089,1.359 C1.509,1.620 1.227,2.154 1.227,2.993 C1.223,6.009 1.223,6.921 1.223,9.936 C1.223,12.965 1.223,15.997 1.227,19.029 C1.227,20.267 1.840,20.843 3.155,20.843 C7.393,20.850 11.627,20.850 15.854,20.843 C17.168,20.843 17.780,20.267 17.784,19.028 C17.786,17.008 17.785,14.986 17.784,12.966 L17.784,9.936 L17.784,7.275 C17.786,5.977 17.786,4.910 17.784,2.993 ZM2.743,6.438 L2.432,2.560 L16.580,2.560 L16.293,6.438 L2.743,6.438 ZM7.841,11.684 C8.090,11.924 8.124,12.207 7.936,12.454 C7.694,12.770 7.250,12.803 6.946,12.527 C6.726,12.323 6.512,12.112 6.289,11.898 L6.035,11.644 L5.157,12.481 C4.996,12.635 4.839,12.668 4.733,12.668 C4.643,12.668 4.552,12.645 4.465,12.603 C4.223,12.484 4.066,12.283 4.038,12.069 C4.017,11.875 4.098,11.697 4.280,11.548 C4.486,11.380 4.678,11.203 4.895,11.002 L5.122,10.794 L4.930,10.616 C4.660,10.370 4.405,10.136 4.157,9.895 C4.028,9.774 3.961,9.625 3.964,9.477 C3.964,9.325 4.039,9.180 4.171,9.059 C4.423,8.822 4.797,8.818 5.058,9.055 C5.191,9.177 5.320,9.302 5.457,9.428 L6.006,9.944 L6.233,9.724 C6.443,9.523 6.646,9.325 6.856,9.134 C7.034,8.966 7.205,8.930 7.314,8.930 C7.436,8.930 7.621,8.973 7.810,9.174 C8.064,9.441 8.054,9.744 7.782,10.007 C7.597,10.182 7.412,10.353 7.197,10.547 L6.919,10.807 L7.205,11.078 C7.422,11.278 7.635,11.479 7.841,11.684 ZM4.039,16.959 C4.360,16.956 4.685,16.956 5.010,16.956 L5.013,16.956 L5.363,16.847 L5.363,16.676 C5.359,16.373 5.359,16.083 5.367,15.790 C5.370,15.481 5.534,15.280 5.845,15.214 C6.293,15.115 6.677,15.405 6.677,15.833 C6.680,16.097 6.680,16.360 6.680,16.630 L6.677,16.959 L7.617,16.955 L7.984,16.959 C8.362,16.962 8.627,17.203 8.631,17.542 C8.638,17.895 8.372,18.145 7.988,18.151 C7.807,18.155 7.621,18.155 7.436,18.155 L6.680,18.155 L6.680,18.609 C6.680,18.860 6.684,19.107 6.677,19.354 C6.667,19.673 6.398,19.897 6.020,19.897 L5.984,19.897 C5.611,19.887 5.374,19.680 5.363,19.354 C5.359,19.199 5.359,19.051 5.359,18.903 L5.359,18.155 L4.049,18.155 C3.849,18.155 3.693,18.099 3.580,17.990 C3.469,17.884 3.409,17.730 3.409,17.546 C3.409,17.183 3.650,16.959 4.039,16.959 ZM11.668,9.072 L14.748,9.072 C14.946,9.072 15.111,9.131 15.227,9.240 C15.338,9.348 15.394,9.497 15.394,9.678 C15.390,10.060 15.163,10.270 14.750,10.270 C13.727,10.274 12.698,10.274 11.668,10.270 C11.308,10.270 11.074,10.037 11.074,9.678 C11.070,9.500 11.133,9.338 11.252,9.230 C11.357,9.128 11.504,9.072 11.668,9.072 ZM14.115,12.724 L11.700,12.720 C11.430,12.720 11.245,12.619 11.144,12.418 C11.039,12.200 11.053,11.950 11.179,11.766 C11.295,11.594 11.487,11.502 11.711,11.502 C12.021,11.512 12.297,11.515 12.574,11.515 L14.336,11.509 C14.486,11.509 14.632,11.512 14.779,11.515 C15.132,11.532 15.346,11.716 15.383,12.039 C15.401,12.174 15.390,12.371 15.247,12.523 C15.167,12.612 15.013,12.714 14.734,12.717 C14.531,12.724 14.321,12.724 14.115,12.724 ZM11.676,16.959 C12.221,16.956 12.776,16.956 13.328,16.956 L15.002,16.959 C15.369,16.959 15.607,17.193 15.607,17.546 C15.607,17.924 15.377,18.151 14.999,18.151 L11.668,18.155 C11.315,18.151 11.078,17.911 11.074,17.552 C11.074,17.378 11.133,17.223 11.249,17.114 C11.354,17.012 11.504,16.959 11.676,16.959 Z" class="cls-1"/>
</svg>
