<svg xmlns="http://www.w3.org/2000/svg" xmlns:xlink="http://www.w3.org/1999/xlink" preserveAspectRatio="xMidYMid" width="10" height="16" viewBox="0 0 10 16">
  <defs>
    <style>
      .cls-1 {
        fill: #b9170c;
        fill-rule: evenodd;
      }
    </style>
  </defs>
  <path d="M-0.001,3.529 L-0.001,13.187 C-0.001,14.736 1.250,15.996 2.787,15.996 L7.215,15.996 C8.752,15.996 10.002,14.736 10.002,13.187 L10.002,3.529 L-0.001,3.529 ZM9.052,13.187 C9.052,14.208 8.228,15.038 7.215,15.038 L2.787,15.038 C1.774,15.038 0.950,14.208 0.950,13.187 L0.950,4.487 L9.052,4.487 L9.052,13.187 ZM2.455,13.192 L2.455,6.010 C2.455,5.737 2.675,5.516 2.946,5.516 C3.217,5.516 3.436,5.737 3.436,6.010 L3.436,13.192 C3.436,13.465 3.217,13.686 2.946,13.686 C2.675,13.686 2.455,13.465 2.455,13.192 ZM4.580,13.192 L4.580,6.010 C4.580,5.737 4.800,5.516 5.071,5.516 C5.341,5.516 5.561,5.737 5.561,6.010 L5.561,13.192 C5.561,13.465 5.341,13.686 5.071,13.686 C4.800,13.686 4.580,13.465 4.580,13.192 ZM6.705,13.192 L6.705,6.010 C6.705,5.737 6.925,5.516 7.196,5.516 C7.467,5.516 7.686,5.737 7.686,6.010 L7.686,13.192 C7.686,13.465 7.467,13.686 7.196,13.686 C6.925,13.686 6.705,13.465 6.705,13.192 ZM8.780,1.176 L7.277,1.176 L7.277,0.826 C7.277,0.372 6.937,0.003 6.520,0.003 L3.463,0.003 C3.046,0.003 2.707,0.372 2.707,0.826 L2.707,1.176 L1.163,1.176 C0.521,1.176 -0.001,1.701 -0.001,2.349 L0.022,3.131 L9.944,3.131 L9.944,2.349 C9.944,1.701 9.423,1.176 8.780,1.176 ZM3.471,0.826 C3.471,0.795 3.481,0.776 3.472,0.773 L6.493,0.765 C6.498,0.769 6.512,0.789 6.512,0.826 L6.512,1.176 L3.471,1.176 L3.471,0.826 Z" class="cls-1"/>
</svg>
