<svg xmlns="http://www.w3.org/2000/svg" xmlns:xlink="http://www.w3.org/1999/xlink" preserveAspectRatio="xMidYMid" width="19" height="19" viewBox="0 0 19 19">
  <defs>
    <style>
      .cls-1 {
        fill: #555;
        fill-rule: evenodd;
      }
    </style>
  </defs>
  <path d="M9.500,19.000 C6.597,19.000 3.893,17.676 2.109,15.465 L2.109,16.891 C2.109,17.182 1.874,17.418 1.582,17.418 C1.290,17.418 1.054,17.182 1.054,16.891 L1.054,13.723 C1.054,13.431 1.290,13.195 1.582,13.195 L4.749,13.195 C5.041,13.195 5.277,13.431 5.277,13.723 C5.277,14.014 5.041,14.250 4.749,14.250 L2.521,14.250 C4.085,16.547 6.687,17.945 9.500,17.945 C14.156,17.945 17.945,14.157 17.945,9.500 C17.945,9.208 18.181,8.973 18.472,8.973 C18.764,8.973 18.999,9.208 18.999,9.500 C18.999,14.740 14.740,19.000 9.500,19.000 ZM9.496,15.548 C9.205,15.548 8.969,15.312 8.969,15.020 L8.969,14.212 C7.760,13.966 6.848,12.896 6.848,11.617 C6.848,11.325 7.083,11.090 7.375,11.090 C7.667,11.090 7.903,11.325 7.903,11.617 C7.903,12.496 8.617,13.210 9.496,13.210 C10.375,13.210 11.090,12.496 11.090,11.617 C11.090,10.776 10.338,10.095 9.508,10.039 C9.504,10.042 9.477,10.042 9.500,10.039 C8.041,10.039 6.852,8.849 6.852,7.391 C6.852,6.111 7.765,5.042 8.973,4.795 L8.973,3.979 C8.973,3.688 9.208,3.452 9.500,3.452 C9.792,3.452 10.027,3.688 10.027,3.979 L10.027,4.795 C11.236,5.042 12.148,6.111 12.148,7.391 C12.148,7.682 11.912,7.918 11.620,7.918 C11.329,7.918 11.092,7.682 11.092,7.391 C11.092,6.512 10.379,5.797 9.500,5.797 C8.620,5.797 7.906,6.512 7.906,7.391 C7.906,8.232 8.659,8.913 9.488,8.969 C9.493,8.965 9.518,8.965 9.496,8.969 C10.954,8.969 12.144,10.158 12.144,11.617 C12.144,12.896 11.231,13.966 10.024,14.212 L10.024,15.020 C10.024,15.312 9.788,15.548 9.496,15.548 ZM16.890,4.937 L13.722,4.937 C13.431,4.937 13.195,4.701 13.195,4.410 C13.195,4.118 13.431,3.882 13.722,3.882 L15.798,3.882 C14.205,2.098 11.919,1.055 9.500,1.055 C4.844,1.055 1.054,4.844 1.054,9.500 C1.054,9.792 0.818,10.028 0.527,10.028 C0.236,10.028 -0.001,9.792 -0.001,9.500 C-0.001,4.260 4.259,0.000 9.500,0.000 C12.114,0.000 14.582,1.077 16.363,2.936 L16.363,1.241 C16.363,0.950 16.598,0.714 16.890,0.714 C17.182,0.714 17.417,0.950 17.417,1.241 L17.417,4.410 C17.417,4.701 17.182,4.937 16.890,4.937 Z" class="cls-1"/>
</svg>
