<svg xmlns="http://www.w3.org/2000/svg" xmlns:xlink="http://www.w3.org/1999/xlink" preserveAspectRatio="xMidYMid" width="25" height="29" viewBox="0 0 25 29">
  <defs>
    <style>
      .cls-1 {
        fill: #5b6779;
        fill-rule: evenodd;
      }
    </style>
  </defs>
  <path d="M12.297,29.002 C5.399,29.002 -0.005,21.854 -0.005,12.727 C-0.005,5.118 5.020,0.005 12.499,0.005 C20.212,0.005 25.004,4.879 25.003,12.727 C25.003,22.310 19.778,29.002 12.297,29.002 ZM12.298,27.961 C18.481,27.961 22.983,22.895 23.830,15.357 L19.461,18.140 L19.424,18.079 C19.289,19.817 17.874,21.193 16.131,21.193 C14.301,21.193 12.812,19.678 12.812,17.816 C12.812,17.802 12.817,17.788 12.817,17.774 C12.815,17.770 12.811,17.769 12.809,17.765 C12.713,17.711 12.501,17.637 12.427,17.627 C12.204,17.622 12.142,17.654 11.936,17.826 C11.930,19.683 10.444,21.193 8.619,21.193 C6.865,21.193 5.439,19.796 5.322,18.042 L1.193,15.409 C2.106,22.628 6.654,27.961 12.298,27.961 ZM18.761,17.816 C18.761,16.338 17.584,15.140 16.131,15.140 C14.678,15.140 13.501,16.338 13.501,17.816 C13.501,19.294 14.678,20.492 16.131,20.492 C17.584,20.492 18.761,19.294 18.761,17.816 ZM11.247,17.816 C11.247,16.338 10.069,15.140 8.616,15.140 C7.164,15.140 5.987,16.338 5.987,17.816 C5.987,19.294 7.164,20.492 8.616,20.492 C10.069,20.492 11.247,19.294 11.247,17.816 ZM20.333,5.764 C13.553,7.926 4.781,5.613 4.781,5.613 L1.374,10.271 C0.921,12.859 1.087,14.258 1.103,14.452 L5.363,17.167 C5.661,15.615 7.006,14.440 8.616,14.440 C10.161,14.440 11.451,15.524 11.820,16.980 C11.987,16.894 12.184,16.847 12.470,16.865 C12.476,16.865 12.693,16.897 12.926,16.983 C13.294,15.526 14.585,14.440 16.131,14.440 C17.780,14.440 19.141,15.674 19.397,17.279 L23.907,14.404 C23.925,14.160 24.158,12.327 23.638,10.067 L20.333,5.764 ZM8.444,17.751 C7.967,17.751 7.581,17.358 7.581,16.873 C7.581,16.388 7.967,15.995 8.444,15.995 C8.920,15.995 9.306,16.388 9.306,16.873 C9.306,17.358 8.920,17.751 8.444,17.751 ZM15.095,16.873 C15.095,16.388 15.481,15.995 15.958,15.995 C16.434,15.995 16.820,16.388 16.820,16.873 C16.820,17.358 16.434,17.751 15.958,17.751 C15.481,17.751 15.095,17.358 15.095,16.873 ZM9.456,23.560 C9.583,23.656 12.608,25.841 15.534,23.566 C15.699,23.437 15.935,23.468 16.061,23.637 C16.187,23.805 16.156,24.044 15.991,24.173 C14.858,25.054 13.704,25.348 12.669,25.348 C10.619,25.348 9.037,24.195 9.014,24.177 C8.846,24.052 8.810,23.814 8.932,23.643 C9.053,23.473 9.289,23.436 9.456,23.560 Z" class="cls-1"/>
</svg>
