<svg xmlns="http://www.w3.org/2000/svg" xmlns:xlink="http://www.w3.org/1999/xlink" preserveAspectRatio="xMidYMid" width="20.03" height="20" viewBox="0 0 20.03 20">
  <defs>
    <style>
      .cls-1 {
        fill: #8caa0b;
        fill-rule: evenodd;
      }
    </style>
  </defs>
  <path d="M18.500,8.999 L1.499,8.999 C0.671,8.999 -0.001,8.328 -0.001,7.499 C-0.001,6.671 0.671,5.999 1.499,5.999 L18.500,5.999 C19.327,5.999 19.999,6.671 19.999,7.499 C19.999,8.328 19.327,8.999 18.500,8.999 ZM18.500,2.999 L1.499,2.999 C0.671,2.999 -0.001,2.328 -0.001,1.499 C-0.001,0.671 0.671,-0.001 1.499,-0.001 L18.500,-0.001 C19.327,-0.001 19.999,0.671 19.999,1.499 C19.999,2.328 19.327,2.999 18.500,2.999 ZM3.204,12.334 C5.528,13.801 7.857,15.268 10.183,16.735 C12.393,15.283 14.605,13.831 16.818,12.379 C18.614,11.199 21.209,13.228 19.398,14.418 C16.764,16.146 14.132,17.876 11.500,19.605 C10.666,20.150 9.754,20.130 8.919,19.605 C6.154,17.860 3.388,16.118 0.622,14.373 C-1.219,13.215 1.382,11.186 3.204,12.334 Z" class="cls-1"/>
</svg>
