<svg xmlns="http://www.w3.org/2000/svg" xmlns:xlink="http://www.w3.org/1999/xlink" preserveAspectRatio="xMidYMid" width="20" height="17" viewBox="0 0 20 17">
  <defs>
    <style>
      .cls-1 {
        fill: #555;
        fill-rule: evenodd;
      }
    </style>
  </defs>
  <path d="M19.084,16.092 C18.668,16.527 17.918,17.000 16.672,17.000 C16.462,17.000 16.255,17.000 16.047,16.960 L3.199,16.960 C2.367,16.960 1.618,16.684 1.078,16.132 C-0.003,15.027 0.038,13.292 0.038,13.095 L0.038,-0.002 L15.631,-0.002 L15.631,8.597 L19.998,8.479 L19.998,13.804 C19.998,13.883 20.039,15.146 19.084,16.092 ZM13.261,13.292 L13.261,9.820 C13.261,9.820 13.261,9.820 13.261,9.781 L13.261,2.286 L2.408,2.286 L2.408,13.174 C2.408,13.607 2.492,14.318 2.783,14.593 C2.866,14.672 2.949,14.712 3.199,14.712 L13.510,14.712 C13.261,14.002 13.261,13.371 13.261,13.292 ZM17.585,10.806 L15.631,10.885 L15.631,13.292 C15.631,13.528 15.673,14.475 16.338,14.712 C16.422,14.712 16.505,14.751 16.588,14.751 C16.920,14.751 17.211,14.672 17.337,14.554 C17.544,14.357 17.585,13.962 17.585,13.844 L17.585,10.806 ZM4.321,4.456 L11.307,4.456 C11.764,4.456 12.097,4.811 12.097,5.205 C12.097,5.639 11.764,5.954 11.307,5.954 L4.321,5.954 C3.863,5.954 3.531,5.599 3.531,5.205 C3.531,4.771 3.905,4.456 4.321,4.456 ZM4.321,7.769 L11.307,7.769 C11.764,7.769 12.097,8.124 12.097,8.518 C12.097,8.913 11.764,9.268 11.307,9.268 L4.321,9.268 C3.863,9.268 3.531,8.913 3.531,8.518 C3.531,8.124 3.905,7.769 4.321,7.769 ZM4.321,11.162 L11.307,11.162 C11.764,11.162 12.097,11.516 12.097,11.911 C12.097,12.306 11.764,12.660 11.307,12.660 L4.321,12.660 C3.863,12.660 3.531,12.306 3.531,11.911 C3.531,11.477 3.905,11.162 4.321,11.162 Z" class="cls-1"/>
</svg>
