<svg xmlns="http://www.w3.org/2000/svg" xmlns:xlink="http://www.w3.org/1999/xlink" preserveAspectRatio="xMidYMid" width="25" height="23" viewBox="0 0 25 23">
  <defs>
    <style>
      .cls-1 {
        fill: #393939;
        fill-rule: evenodd;
      }
    </style>
  </defs>
  <path d="M24.646,16.659 C23.809,17.025 22.970,17.390 22.131,17.756 C21.715,17.938 21.292,17.796 21.137,17.353 C20.828,16.480 20.518,15.605 20.208,14.731 C19.918,13.912 21.227,13.562 21.515,14.374 C21.631,14.705 21.748,15.035 21.865,15.364 C25.554,6.071 15.179,-2.385 6.512,3.136 C5.773,3.606 5.095,2.441 5.828,1.975 C15.654,-4.285 27.139,5.471 23.105,15.872 C23.393,15.748 23.677,15.621 23.964,15.497 C24.755,15.152 25.446,16.311 24.646,16.659 ZM18.645,19.752 C19.373,19.269 20.050,20.435 19.328,20.914 C9.531,27.392 -2.175,17.611 1.893,7.129 C1.606,7.254 1.320,7.377 1.035,7.501 C0.243,7.847 -0.446,6.689 0.352,6.342 C1.189,5.976 2.028,5.610 2.868,5.244 C3.284,5.062 3.705,5.204 3.863,5.646 C4.173,6.520 4.480,7.395 4.788,8.267 C5.079,9.088 3.769,9.438 3.483,8.625 C3.367,8.295 3.249,7.965 3.133,7.636 C-0.591,17.008 9.978,25.484 18.645,19.752 Z" class="cls-1"/>
</svg>
