<svg xmlns="http://www.w3.org/2000/svg" xmlns:xlink="http://www.w3.org/1999/xlink" preserveAspectRatio="xMidYMid" width="18" height="18" viewBox="0 0 18 18">
  <defs>
    <style>
      .cls-1 {
        fill: #555;
        fill-rule: evenodd;
      }
    </style>
  </defs>
  <path d="M12.266,7.371 C12.266,10.049 10.077,12.228 7.380,12.228 C4.684,12.228 2.474,10.049 2.474,7.371 C2.474,4.674 4.668,2.492 7.380,2.492 C10.077,2.492 12.266,4.691 12.266,7.371 L12.266,7.371 ZM13.416,11.495 C14.246,10.299 14.688,8.835 14.688,7.371 C14.688,3.335 11.442,0.000 7.380,0.000 C3.319,0.000 -0.000,3.335 -0.000,7.371 C-0.000,11.407 3.319,14.665 7.380,14.665 C8.853,14.665 10.327,14.203 11.549,13.384 L16.088,18.000 L17.999,16.075 L13.416,11.495 L13.416,11.495 Z" class="cls-1"/>
</svg>
