<svg xmlns="http://www.w3.org/2000/svg" xmlns:xlink="http://www.w3.org/1999/xlink" preserveAspectRatio="xMidYMid" width="22" height="15.97" viewBox="0 0 22 15.97">
  <defs>
    <style>
      .cls-1 {
        fill: #5b6779;
        fill-rule: evenodd;
      }
    </style>
  </defs>
  <path d="M21.897,6.421 L17.527,10.855 C17.503,10.879 17.480,10.902 17.457,10.926 C17.432,10.949 17.432,10.949 17.410,10.949 C17.386,10.949 17.386,10.973 17.362,10.973 C17.340,10.997 17.340,10.997 17.316,10.997 C17.292,11.020 17.292,11.020 17.269,11.020 C17.246,11.020 17.199,11.020 17.176,11.020 C17.152,11.020 17.106,11.020 17.083,11.020 C17.059,10.997 17.059,10.997 17.036,10.997 C17.013,10.973 17.013,10.973 16.989,10.973 C16.966,10.973 16.966,10.949 16.943,10.949 L16.919,10.926 C16.896,10.926 16.873,10.902 16.849,10.879 C16.826,10.855 16.802,10.831 16.778,10.808 C16.756,10.808 16.756,10.784 16.756,10.784 C16.756,10.761 16.732,10.761 16.732,10.737 C16.708,10.714 16.708,10.714 16.708,10.690 C16.686,10.666 16.686,10.666 16.686,10.643 C16.686,10.619 16.686,10.572 16.686,10.548 L16.686,8.284 L15.191,8.284 C14.932,8.284 14.722,8.072 14.722,7.813 C14.722,7.553 14.932,7.341 15.191,7.341 L17.152,7.341 C17.410,7.341 17.621,7.553 17.621,7.813 L17.621,9.393 L20.868,6.091 L17.621,2.790 L17.621,4.464 C17.621,4.723 17.410,4.936 17.152,4.936 L15.191,4.936 C14.932,4.936 14.722,4.723 14.722,4.464 C14.722,4.205 14.932,3.992 15.191,3.992 L16.686,3.992 L16.686,1.728 C16.686,1.705 16.686,1.705 16.686,1.681 C16.686,1.540 16.732,1.398 16.826,1.304 C17.013,1.115 17.292,1.115 17.480,1.304 L21.849,5.761 C22.037,5.926 22.037,6.233 21.897,6.421 ZM7.432,4.936 L7.385,4.936 C7.130,4.936 6.919,4.723 6.919,4.464 C6.919,4.205 7.130,3.992 7.385,3.992 L7.432,3.992 C7.690,3.992 7.900,4.205 7.900,4.464 C7.900,4.723 7.690,4.936 7.432,4.936 ZM7.432,8.261 L7.385,8.261 C7.130,8.261 6.919,8.049 6.919,7.789 C6.919,7.530 7.130,7.318 7.385,7.318 L7.432,7.318 C7.690,7.318 7.900,7.530 7.900,7.789 C7.900,8.049 7.690,8.261 7.432,8.261 ZM10.424,4.936 L10.002,4.936 C9.746,4.936 9.536,4.723 9.536,4.464 C9.536,4.205 9.746,3.992 10.002,3.992 L10.424,3.992 C10.681,3.992 10.891,4.205 10.891,4.464 C10.891,4.723 10.681,4.936 10.424,4.936 ZM10.424,8.261 L10.002,8.261 C9.746,8.261 9.536,8.049 9.536,7.789 C9.536,7.530 9.746,7.318 10.002,7.318 L10.424,7.318 C10.681,7.318 10.891,7.530 10.891,7.789 C10.891,8.049 10.681,8.261 10.424,8.261 ZM15.377,9.346 C15.634,9.346 15.844,9.534 15.867,9.794 C15.914,11.020 15.563,12.058 14.862,12.765 L12.690,14.958 C12.012,15.642 11.077,15.973 10.002,15.973 C7.994,15.973 5.470,14.770 3.321,12.624 C0.049,9.322 -0.979,5.172 1.008,3.167 L3.181,0.974 C4.863,-0.701 8.157,-0.253 11.195,2.106 C11.405,2.271 11.452,2.554 11.288,2.766 C11.125,2.978 10.845,3.025 10.635,2.860 C8.016,0.832 5.166,0.337 3.859,1.657 C2.315,3.214 3.367,6.940 6.170,9.770 C8.975,12.600 12.643,13.685 14.208,12.105 C14.722,11.563 14.981,10.784 14.932,9.841 C14.910,9.581 15.121,9.369 15.377,9.346 ZM2.223,3.285 L1.685,3.827 C1.264,4.228 1.054,4.794 0.984,5.455 L2.223,4.205 C2.199,3.898 2.199,3.591 2.223,3.285 ZM2.433,5.336 L1.054,6.728 C1.124,7.082 1.194,7.436 1.310,7.789 L2.760,6.327 C2.620,5.997 2.525,5.667 2.433,5.336 ZM3.181,7.247 L1.709,8.733 C1.871,9.086 2.059,9.416 2.269,9.770 L3.764,8.261 C3.554,7.931 3.344,7.577 3.181,7.247 ZM4.325,9.039 L2.806,10.572 C3.064,10.926 3.367,11.279 3.670,11.609 L5.190,10.077 C4.885,9.723 4.582,9.393 4.325,9.039 ZM5.844,10.737 L4.325,12.270 C4.652,12.577 4.979,12.860 5.330,13.119 L6.849,11.586 C6.521,11.327 6.195,11.044 5.844,10.737 ZM7.596,12.176 L6.100,13.685 C6.451,13.921 6.779,14.110 7.130,14.275 L8.625,12.765 C8.297,12.577 7.970,12.388 7.596,12.176 ZM9.536,13.190 L8.086,14.652 C8.251,14.699 8.437,14.770 8.625,14.817 C8.788,14.864 8.951,14.911 9.115,14.935 L10.516,13.520 C10.190,13.426 9.862,13.331 9.536,13.190 ZM12.200,13.756 C12.012,13.756 11.801,13.756 11.615,13.732 L10.353,15.005 C11.055,14.935 11.615,14.699 12.036,14.275 L12.573,13.732 C12.456,13.756 12.316,13.756 12.200,13.756 ZM13.601,8.261 L12.620,8.261 C12.362,8.261 12.152,8.049 12.152,7.789 C12.152,7.530 12.362,7.318 12.620,7.318 L13.601,7.318 C13.858,7.318 14.068,7.530 14.068,7.789 C14.068,8.049 13.858,8.261 13.601,8.261 ZM13.601,4.936 L12.620,4.936 C12.362,4.936 12.152,4.723 12.152,4.464 C12.152,4.205 12.362,3.992 12.620,3.992 L13.601,3.992 C13.858,3.992 14.068,4.205 14.068,4.464 C14.068,4.723 13.858,4.936 13.601,4.936 Z" class="cls-1"/>
</svg>
