<svg xmlns="http://www.w3.org/2000/svg" xmlns:xlink="http://www.w3.org/1999/xlink" preserveAspectRatio="xMidYMid" width="29" height="29" viewBox="0 0 29 29">
  <defs>
    <style>
      .cls-1 {
        fill: #5b6779;
        fill-rule: evenodd;
      }
    </style>
  </defs>
  <path d="M28.548,14.009 C27.956,13.870 27.469,13.625 27.086,13.311 C26.877,13.102 26.807,12.789 26.981,12.544 C27.260,12.126 27.679,11.778 28.200,11.464 C28.444,11.324 28.583,11.081 28.513,10.802 L28.513,10.802 L28.513,10.802 C28.444,10.558 28.200,10.384 27.922,10.384 C27.330,10.384 26.772,10.279 26.320,10.070 C26.076,9.930 25.937,9.652 26.006,9.373 C26.146,8.884 26.459,8.432 26.911,8.013 C27.120,7.839 27.155,7.525 27.052,7.316 L27.052,7.316 L27.052,7.316 C26.911,7.072 26.633,7.002 26.390,7.072 C25.797,7.247 25.240,7.281 24.754,7.177 C24.475,7.107 24.266,6.863 24.300,6.584 C24.335,6.096 24.509,5.538 24.823,5.015 C24.962,4.771 24.962,4.493 24.754,4.319 L24.754,4.319 L24.754,4.319 C24.579,4.144 24.266,4.109 24.057,4.248 C23.534,4.562 23.012,4.737 22.490,4.771 C22.211,4.771 21.933,4.597 21.897,4.319 C21.793,3.830 21.828,3.273 22.003,2.680 C22.073,2.436 22.003,2.157 21.758,2.017 L21.758,2.017 L21.758,2.017 C21.516,1.878 21.237,1.947 21.062,2.157 C20.644,2.610 20.157,2.924 19.705,3.063 C19.427,3.168 19.113,3.028 19.007,2.749 C18.799,2.296 18.695,1.773 18.695,1.146 C18.695,0.868 18.556,0.623 18.278,0.553 L18.278,0.553 L18.278,0.553 C18.033,0.484 17.756,0.623 17.614,0.868 C17.267,1.320 16.884,1.739 16.502,2.017 C16.257,2.192 15.910,2.157 15.736,1.913 C15.422,1.530 15.180,1.042 15.039,0.449 C14.969,0.205 14.761,-0.004 14.482,-0.004 L14.482,-0.004 L14.482,-0.004 C14.204,-0.004 13.994,0.205 13.925,0.449 C13.785,1.042 13.542,1.530 13.228,1.913 C13.020,2.122 12.706,2.192 12.462,2.017 C12.045,1.739 11.698,1.320 11.384,0.798 C11.244,0.553 11.000,0.415 10.722,0.484 L10.722,0.484 L10.722,0.484 C10.478,0.553 10.303,0.798 10.303,1.076 C10.303,1.669 10.200,2.227 9.991,2.680 C9.851,2.924 9.573,3.063 9.295,2.993 C8.807,2.854 8.355,2.540 7.937,2.088 C7.761,1.878 7.449,1.843 7.241,1.947 L7.241,1.947 L7.241,1.947 C6.997,2.088 6.927,2.366 6.997,2.610 C7.170,3.203 7.206,3.760 7.101,4.248 C7.032,4.527 6.787,4.737 6.510,4.702 C6.021,4.667 5.465,4.493 4.943,4.179 C4.698,4.040 4.420,4.040 4.245,4.248 L4.245,4.248 L4.245,4.248 C4.072,4.422 4.036,4.737 4.176,4.946 C4.490,5.468 4.663,5.991 4.698,6.514 C4.698,6.793 4.524,7.072 4.245,7.107 C3.759,7.211 3.201,7.177 2.610,7.002 C2.366,6.932 2.087,7.002 1.947,7.247 L1.947,7.247 L1.947,7.247 C1.809,7.491 1.879,7.769 2.087,7.944 C2.540,8.362 2.853,8.850 2.993,9.303 C3.098,9.582 2.958,9.895 2.679,10.001 C2.227,10.209 1.704,10.313 1.078,10.313 C0.799,10.313 0.555,10.453 0.485,10.732 L0.485,10.732 L0.485,10.732 C0.416,10.976 0.555,11.254 0.799,11.394 C1.322,11.673 1.739,12.057 2.018,12.475 C2.193,12.718 2.157,13.068 1.913,13.242 C1.530,13.555 1.042,13.800 0.450,13.939 C0.207,14.009 -0.001,14.218 -0.001,14.497 L-0.001,14.497 L-0.001,14.497 C-0.001,14.776 0.207,14.985 0.450,15.054 C1.042,15.194 1.530,15.438 1.913,15.751 C2.122,15.961 2.193,16.274 2.018,16.518 C1.739,16.937 1.322,17.285 0.799,17.599 C0.555,17.738 0.416,17.982 0.485,18.262 L0.485,18.262 L0.485,18.262 C0.555,18.505 0.799,18.679 1.078,18.679 C1.669,18.679 2.227,18.784 2.679,18.993 C2.923,19.133 3.063,19.412 2.993,19.691 C2.853,20.178 2.540,20.632 2.087,21.050 C1.879,21.225 1.845,21.538 1.947,21.747 L1.947,21.747 L1.947,21.747 C2.087,21.991 2.366,22.061 2.610,21.991 C3.201,21.817 3.759,21.782 4.245,21.886 C4.524,21.957 4.734,22.200 4.698,22.479 C4.663,22.967 4.490,23.524 4.176,24.048 C4.036,24.292 4.036,24.571 4.245,24.745 L4.245,24.745 L4.245,24.745 C4.420,24.919 4.734,24.954 4.943,24.814 C5.465,24.501 5.987,24.327 6.510,24.292 C6.787,24.292 7.066,24.466 7.101,24.745 C7.206,25.233 7.170,25.791 6.997,26.384 C6.927,26.627 6.997,26.906 7.241,27.045 L7.241,27.045 L7.241,27.045 C7.483,27.185 7.761,27.116 7.937,26.906 C8.355,26.453 8.842,26.139 9.295,26.000 C9.573,25.895 9.885,26.035 9.991,26.314 C10.200,26.766 10.303,27.290 10.303,27.916 C10.303,28.196 10.443,28.439 10.722,28.509 L10.722,28.509 L10.722,28.509 C10.966,28.580 11.244,28.439 11.384,28.196 C11.662,27.673 12.045,27.255 12.462,26.976 C12.706,26.802 13.055,26.836 13.228,27.080 C13.542,27.464 13.785,27.952 13.925,28.545 C13.994,28.788 14.204,28.998 14.482,28.998 L14.482,28.998 L14.482,28.998 C14.761,28.998 14.969,28.788 15.039,28.545 C15.180,27.952 15.422,27.464 15.736,27.080 C15.945,26.871 16.257,26.802 16.502,26.976 C16.919,27.255 17.267,27.673 17.580,28.196 C17.720,28.439 17.964,28.580 18.242,28.509 L18.242,28.509 L18.242,28.509 C18.486,28.439 18.661,28.196 18.661,27.916 C18.661,27.325 18.764,26.766 18.973,26.314 C19.113,26.069 19.391,25.930 19.669,26.000 C20.157,26.139 20.610,26.453 21.028,26.906 C21.201,27.116 21.516,27.150 21.723,27.045 L21.723,27.045 L21.723,27.045 C21.968,26.906 22.038,26.627 21.968,26.384 C21.793,25.791 21.758,25.233 21.863,24.745 C21.933,24.466 22.177,24.257 22.455,24.292 C22.943,24.327 23.500,24.501 24.022,24.814 C24.266,24.954 24.544,24.954 24.717,24.745 L24.717,24.745 L24.717,24.745 C24.892,24.571 24.927,24.257 24.788,24.048 C24.475,23.524 24.300,23.002 24.266,22.479 C24.266,22.200 24.440,21.921 24.717,21.886 C25.206,21.782 25.762,21.817 26.355,21.991 C26.598,22.061 26.877,21.991 27.016,21.747 L27.016,21.747 L27.016,21.747 C27.155,21.503 27.086,21.225 26.877,21.050 C26.424,20.632 26.111,20.143 25.971,19.691 C25.867,19.412 26.006,19.098 26.285,18.993 C26.738,18.784 27.260,18.679 27.887,18.679 C28.165,18.679 28.409,18.540 28.478,18.262 L28.478,18.262 L28.478,18.262 C28.548,18.018 28.409,17.738 28.165,17.599 C27.679,17.390 27.260,17.007 26.981,16.623 C26.807,16.379 26.842,16.030 27.086,15.856 C27.469,15.542 27.956,15.298 28.548,15.159 C28.791,15.089 29.001,14.880 29.001,14.601 L29.001,14.601 L29.001,14.601 C29.001,14.288 28.791,14.078 28.548,14.009 ZM11.070,5.364 C12.150,4.980 13.263,4.771 14.448,4.771 C15.631,4.771 16.745,4.980 17.824,5.364 C18.834,5.748 19.113,7.002 18.346,7.769 L15.491,10.627 C14.935,11.185 13.994,11.185 13.438,10.627 L10.582,7.769 C9.781,7.002 10.060,5.712 11.070,5.364 ZM7.657,18.471 C6.891,19.237 5.605,18.924 5.256,17.947 C4.455,15.787 4.455,13.381 5.256,11.220 C5.639,10.209 6.891,9.930 7.657,10.697 L10.514,13.555 C11.070,14.113 11.070,15.054 10.514,15.612 L7.657,18.471 ZM17.824,23.769 C16.745,24.152 15.631,24.362 14.448,24.362 C13.263,24.362 12.150,24.152 11.070,23.769 C10.060,23.386 9.781,22.130 10.548,21.363 L13.402,18.505 C13.960,17.947 14.900,17.947 15.456,18.505 L18.312,21.363 C19.113,22.130 18.834,23.420 17.824,23.769 ZM23.639,17.913 C23.256,18.924 22.003,19.203 21.237,18.436 L18.381,15.612 C17.824,15.054 17.824,14.113 18.381,13.555 L21.237,10.697 C22.003,9.930 23.290,10.244 23.639,11.220 C24.440,13.381 24.440,15.751 23.639,17.913 Z" class="cls-1"/>
</svg>
