<svg xmlns="http://www.w3.org/2000/svg" xmlns:xlink="http://www.w3.org/1999/xlink" preserveAspectRatio="xMidYMid" width="19" height="19" viewBox="0 0 19 19">
  <defs>
    <style>
      .cls-1 {
        fill: #8caa0b;
        fill-rule: evenodd;
      }
    </style>
  </defs>
  <path d="M18.999,8.137 L15.818,11.606 L15.818,9.541 L10.366,9.541 L10.366,6.774 L15.818,6.774 L15.818,4.708 L18.999,8.137 ZM12.845,5.039 C12.514,5.039 12.224,4.750 12.224,4.419 L12.224,1.198 L1.841,1.198 L7.516,3.882 L7.516,15.117 L12.224,15.117 L12.224,11.937 C12.224,11.606 12.514,11.317 12.845,11.317 C13.175,11.317 13.464,11.606 13.464,11.937 L13.464,15.695 C13.422,16.026 13.175,16.315 12.845,16.315 L7.516,16.315 L7.516,19.000 L1.911,16.315 L0.618,16.315 C0.288,16.315 -0.002,16.026 -0.002,15.695 L-0.002,0.619 C-0.002,0.289 0.288,-0.000 0.618,-0.000 L12.845,-0.000 C13.175,-0.000 13.464,0.289 13.464,0.619 L13.464,4.419 C13.464,4.750 13.175,5.039 12.845,5.039 Z" class="cls-1"/>
</svg>
