<svg xmlns="http://www.w3.org/2000/svg" xmlns:xlink="http://www.w3.org/1999/xlink" preserveAspectRatio="xMidYMid" width="20" height="17" viewBox="0 0 20 17">
  <defs>
    <style>
      .cls-1 {
        fill: #5b6779;
        fill-rule: evenodd;
      }
    </style>
  </defs>
  <path d="M18.680,17.003 L15.746,17.003 L15.746,15.883 L17.741,15.883 C18.351,15.883 18.846,15.387 18.846,14.775 L18.846,13.469 L20.002,13.469 L20.002,15.679 C20.002,16.411 19.410,17.003 18.680,17.003 ZM18.846,10.985 L20.002,10.985 L20.002,12.179 L18.846,12.179 L18.846,10.985 ZM18.846,8.552 L20.002,8.552 L20.002,9.694 L18.846,9.694 L18.846,8.552 ZM18.846,5.554 C18.846,4.942 18.351,4.446 17.741,4.446 L15.746,4.446 L15.746,3.324 L18.680,3.324 C19.410,3.324 20.002,3.918 20.002,4.651 L20.002,7.262 L18.846,7.262 L18.846,5.554 ZM13.321,15.883 L14.460,15.883 L14.460,17.003 L13.321,17.003 L13.321,15.883 ZM13.321,3.933 L12.947,3.933 L12.947,2.225 C12.947,1.613 12.453,1.117 11.843,1.117 L9.849,1.117 L9.849,-0.004 L12.783,-0.004 C13.513,-0.004 14.104,0.590 14.104,1.322 L14.104,3.324 L14.460,3.324 L14.460,4.446 L13.321,4.446 L13.321,3.933 ZM5.894,15.679 L5.894,13.675 L4.945,13.675 L4.945,12.555 L6.136,12.555 L6.136,13.469 L7.050,13.469 L7.050,14.775 C7.050,15.387 7.545,15.883 8.155,15.883 L9.556,15.883 L9.556,17.003 L7.216,17.003 C6.486,17.003 5.894,16.411 5.894,15.679 ZM8.562,13.675 L7.423,13.675 L7.423,12.555 L8.562,12.555 L8.562,13.675 ZM7.050,12.179 L5.894,12.179 L5.894,10.985 L7.050,10.985 L7.050,12.179 ZM5.894,8.552 L7.050,8.552 L7.050,9.694 L5.894,9.694 L5.894,8.552 ZM7.050,5.554 L7.050,7.262 L5.894,7.262 L5.894,4.651 C5.894,3.918 6.486,3.324 7.216,3.324 L9.556,3.324 L9.556,4.446 L8.155,4.446 C7.545,4.446 7.050,4.942 7.050,5.554 ZM7.423,-0.004 L8.562,-0.004 L8.562,1.117 L7.423,1.117 L7.423,-0.004 ZM4.945,-0.004 L6.136,-0.004 L6.136,1.117 L4.945,1.117 L4.945,-0.004 ZM-0.004,12.350 L-0.004,10.140 L1.153,10.140 L1.153,11.446 C1.153,12.058 1.647,12.555 2.257,12.555 L3.658,12.555 L3.658,13.675 L1.318,13.675 C0.588,13.675 -0.004,13.082 -0.004,12.350 ZM1.153,2.225 L1.153,3.933 L-0.004,3.933 L-0.004,1.322 C-0.004,0.590 0.588,-0.004 1.318,-0.004 L3.658,-0.004 L3.658,1.117 L2.257,1.117 C1.647,1.117 1.153,1.613 1.153,2.225 ZM1.153,6.366 L-0.004,6.366 L-0.004,5.224 L1.153,5.224 L1.153,6.366 ZM1.153,8.850 L-0.004,8.850 L-0.004,7.655 L1.153,7.655 L1.153,8.850 ZM10.843,3.324 L12.034,3.324 L12.034,4.446 L10.843,4.446 L10.843,3.324 ZM12.947,5.224 L14.104,5.224 L14.104,6.366 L12.947,6.366 L12.947,5.224 ZM14.104,8.850 L12.947,8.850 L12.947,7.655 L14.104,7.655 L14.104,8.850 ZM12.947,11.446 L12.947,10.140 L14.104,10.140 L14.104,12.350 C14.104,13.082 13.513,13.675 12.783,13.675 L9.849,13.675 L9.849,12.555 L11.843,12.555 C12.453,12.555 12.947,12.058 12.947,11.446 ZM12.034,17.003 L10.843,17.003 L10.843,15.883 L12.034,15.883 L12.034,17.003 Z" class="cls-1"/>
</svg>
