<svg xmlns="http://www.w3.org/2000/svg" xmlns:xlink="http://www.w3.org/1999/xlink" preserveAspectRatio="xMidYMid" width="17" height="16" viewBox="0 0 17 16">
  <defs>
    <style>
      .cls-1 {
        fill: #5b6779;
        fill-rule: evenodd;
      }
    </style>
  </defs>
  <path d="M6.039,3.842 C5.848,3.842 5.655,3.860 5.446,3.860 C6.197,1.626 8.448,-0.003 11.083,-0.003 C14.348,-0.003 17.002,2.469 17.002,5.508 C17.002,6.661 16.618,7.796 15.884,8.712 C16.024,8.968 16.198,9.170 16.426,9.334 C16.651,9.499 16.773,9.792 16.704,10.067 C16.651,10.341 16.426,10.561 16.146,10.598 C15.954,10.634 15.761,10.634 15.570,10.634 C14.994,10.634 14.471,10.506 14.017,10.286 C13.720,10.451 13.405,10.579 13.074,10.689 C13.074,10.616 13.074,10.543 13.074,10.469 C13.074,10.158 13.057,9.865 13.004,9.573 C13.266,9.462 13.509,9.353 13.755,9.206 L14.017,9.060 L14.279,9.225 C14.541,9.389 14.836,9.499 15.168,9.554 C15.012,9.334 14.889,9.096 14.802,8.840 L14.696,8.529 L14.906,8.291 C15.605,7.503 15.971,6.551 15.971,5.526 C15.971,3.091 13.771,1.095 11.083,1.095 C9.023,1.095 7.262,2.249 6.545,3.878 C6.388,3.842 6.213,3.842 6.039,3.842 ZM1.343,13.948 C0.506,12.996 -0.001,11.788 -0.001,10.469 C-0.001,7.412 2.706,4.922 6.039,4.922 C9.373,4.922 12.079,7.412 12.079,10.469 C12.079,13.527 9.355,15.999 6.039,15.999 C4.835,15.999 3.700,15.669 2.758,15.102 C1.902,15.633 0.995,15.614 0.454,15.541 C0.297,15.523 0.261,15.321 0.384,15.230 C0.908,14.882 1.186,14.387 1.343,13.948 ZM3.124,12.648 C3.124,12.941 3.351,13.179 3.630,13.179 L4.381,13.179 C4.485,13.179 4.573,13.143 4.661,13.088 C4.677,13.069 4.783,12.960 4.783,12.667 L4.783,11.348 C4.783,11.348 4.783,12.960 5.655,13.069 C5.970,13.088 6.353,13.106 6.720,13.106 C7.069,13.143 7.436,13.143 7.733,13.069 C8.727,12.850 8.482,12.117 8.482,12.117 C9.023,11.696 8.710,11.165 8.710,11.165 C9.181,10.634 8.727,10.195 8.727,10.195 C8.727,10.195 8.989,9.774 8.658,9.444 C8.239,9.042 7.104,9.316 7.104,9.316 L7.104,9.316 C7.034,9.334 6.946,9.353 6.860,9.371 C6.860,9.371 6.475,9.554 6.860,8.309 C7.244,7.064 6.598,6.881 6.319,6.881 C6.039,6.881 6.143,7.503 6.143,7.503 C6.143,7.503 5.550,9.206 4.992,9.646 C4.835,9.829 4.747,10.012 4.713,10.140 C4.625,10.067 4.503,10.012 4.381,10.012 L3.630,10.012 C3.351,10.012 3.124,10.250 3.124,10.543 L3.124,12.648 Z" class="cls-1"/>
</svg>
