<svg xmlns="http://www.w3.org/2000/svg" xmlns:xlink="http://www.w3.org/1999/xlink" preserveAspectRatio="xMidYMid" width="17" height="15.563" viewBox="0 0 17 15.563">
  <defs>
    <style>
      .cls-1 {
        fill: #354052;
        fill-rule: evenodd;
      }
    </style>
  </defs>
  <path d="M8.496,-0.002 C3.795,-0.002 -0.012,3.360 -0.012,7.505 C-0.012,8.998 0.484,10.390 1.334,11.559 C1.369,11.595 1.430,11.693 1.470,11.757 C1.552,11.905 1.606,12.071 1.606,12.250 C1.606,12.317 0.813,15.072 0.813,15.072 C0.755,15.285 0.907,15.505 1.150,15.558 C1.185,15.569 1.221,15.569 1.257,15.569 C1.314,15.569 1.367,15.558 1.420,15.544 L1.492,15.515 L3.734,14.446 C3.774,14.426 4.132,14.274 4.177,14.256 C4.328,14.198 4.497,14.168 4.674,14.168 C4.833,14.168 4.989,14.192 5.131,14.241 C5.134,14.241 5.139,14.241 5.139,14.245 C5.161,14.256 5.184,14.260 5.206,14.270 C6.230,14.654 7.351,14.771 8.534,14.771 C13.233,14.771 16.997,11.652 16.997,7.507 C17.004,3.360 13.196,-0.002 8.496,-0.002 ZM8.493,12.002 C7.971,12.002 7.548,11.589 7.548,11.078 C7.548,10.568 7.971,10.155 8.493,10.155 C9.018,10.155 9.438,10.568 9.438,11.078 C9.438,11.589 9.018,12.002 8.493,12.002 ZM9.438,7.385 C9.438,7.896 9.018,8.309 8.493,8.309 C7.971,8.309 7.548,7.896 7.548,7.385 L7.548,3.692 C7.548,3.181 7.971,2.768 8.493,2.768 C9.018,2.768 9.438,3.181 9.438,3.692 L9.438,7.385 Z" class="cls-1"/>
</svg>
