<svg xmlns="http://www.w3.org/2000/svg" xmlns:xlink="http://www.w3.org/1999/xlink" preserveAspectRatio="xMidYMid" width="21" height="18.94" viewBox="0 0 21 18.94">
  <defs>
    <style>
      .cls-1 {
        fill: #555;
        fill-rule: evenodd;
      }
    </style>
  </defs>
  <path d="M20.475,14.317 C19.605,14.694 18.737,15.071 17.868,15.448 C17.207,15.735 16.538,15.514 16.289,14.813 C15.970,13.910 15.650,13.008 15.330,12.105 C14.870,10.807 16.947,10.253 17.403,11.539 C17.433,11.627 17.465,11.715 17.496,11.802 C19.947,5.283 12.579,-0.421 6.547,3.412 C5.376,4.155 4.298,2.312 5.462,1.573 C13.305,-3.410 22.321,4.238 19.515,12.433 C20.019,12.262 20.564,12.358 20.860,12.859 C21.130,13.317 21.011,14.084 20.475,14.317 ZM3.596,7.400 C3.566,7.313 3.534,7.226 3.503,7.138 C1.052,13.657 8.420,19.361 14.452,15.528 C15.623,14.783 16.699,16.628 15.537,17.367 C7.694,22.350 -1.323,14.701 1.483,6.506 C0.980,6.678 0.436,6.581 0.141,6.080 C-0.131,5.623 -0.011,4.856 0.525,4.623 C1.395,4.245 2.263,3.868 3.130,3.491 C3.792,3.203 4.461,3.427 4.710,4.128 C5.029,5.030 5.349,5.933 5.670,6.835 C6.131,8.134 4.052,8.687 3.596,7.400 Z" class="cls-1"/>
</svg>
